<?xml version="1.0" encoding="utf-8"?>
<!-- Generator: Adobe Illustrator 26.0.1, SVG Export Plug-In . SVG Version: 6.00 Build 0)  -->
<svg version="1.1" id="Calque_1" xmlns="http://www.w3.org/2000/svg" xmlns:xlink="http://www.w3.org/1999/xlink" x="0px" y="0px"
	 viewBox="0 0 110 26" style="enable-background:new 0 0 110 26;" xml:space="preserve">
<g>
	<path d="M9.24,22.76L3.85,5.78h-0.1V21.9h2.77v0.63H0V21.9h2.77V4.17H0V3.54h6.83l4.01,13.3h0.1l4.11-13.3h6.62v0.63h-2.77V21.9
		h2.77v0.63h-8.92V21.9h2.77V5.78h-0.1l-5.26,16.98H9.24z"/>
	<path d="M26.6,22.53V21.9h6.05v0.63H26.6z M28.77,22.16l6.57-18.92h0.76l-1.54,4.33L29.6,22.16H28.77z M31.51,16.59v-0.63h8.16
		v0.63H31.51z M39.04,22.16L34.41,8.3h-0.1l-0.18-0.73l1.21-4.33h0.76l6.32,18.92H39.04z M36.02,22.53V21.9h8.64v0.63H36.02z"/>
	<path d="M52.52,22.53V21.9h3.02v-8.01L49.9,4.17h-2.24V3.54h8.74v0.63h-2.72l4.76,8.24h0.1l4.51-8.24h-3.43V3.54h6.67v0.63h-2.42
		l-4.96,9.24v8.49h3.02v0.63H52.52z"/>
	<path d="M75.99,12.79v-0.76h2.09c1.01,0,1.83-0.11,2.46-0.33c0.63-0.22,1.09-0.63,1.39-1.25c0.29-0.61,0.44-1.5,0.44-2.66
		c0-1.02-0.11-1.79-0.33-2.3c-0.22-0.51-0.55-0.86-1-1.05c-0.45-0.18-1.01-0.28-1.7-0.28h-8.72V3.54h9.72
		c1.09,0,2.09,0.17,2.98,0.52c0.9,0.34,1.61,0.84,2.14,1.47c0.53,0.64,0.79,1.42,0.79,2.34c0,0.97-0.33,1.83-0.98,2.57
		c-0.65,0.74-1.59,1.31-2.81,1.73c-1.22,0.41-2.68,0.62-4.4,0.62H75.99z M70.63,22.53V21.9h9.42v0.63H70.63z M73.4,22.16V3.54h3.38
		v18.61H73.4z M86.27,22.53c-0.82,0-1.57-0.16-2.23-0.48c-0.66-0.32-1.19-0.77-1.57-1.35c-0.39-0.58-0.6-1.25-0.63-2.03l-0.08-1.99
		c-0.05-1.33-0.39-2.31-1.03-2.95c-0.64-0.64-1.45-0.96-2.44-0.96l1.91-0.28h0.93v0.1c0.72,0.17,1.41,0.5,2.08,0.98
		c0.66,0.49,1.21,1.07,1.65,1.76c0.44,0.69,0.66,1.44,0.66,2.24v1.31c0,1.16,0.13,1.95,0.38,2.37c0.25,0.42,0.71,0.63,1.36,0.63
		h0.96v0.63H86.27z"/>
	<path d="M91.94,22.53V21.9h6.05v0.63H91.94z M94.11,22.16l6.57-18.92h0.76L99.9,7.57l-4.96,14.58H94.11z M96.85,16.59v-0.63h8.16
		v0.63H96.85z M104.38,22.16L99.75,8.3h-0.1l-0.18-0.73l1.21-4.33h0.76l6.32,18.92H104.38z M101.36,22.53V21.9H110v0.63H101.36z"/>
</g>
</svg>
